<svg xmlns="http://www.w3.org/2000/svg" width="16" height="16" viewBox="0 0 1500 1500">
  <defs>
    <clipPath id="c1">
      <path d="M 136.878906 496 L 1349.628906 496 L 1349.628906 1436.953125 L 136.878906 1436.953125 Z"/>
    </clipPath>
  </defs>
  <g clip-path="url(#c1)">
    <path fill="#ff66c4" d="M 1349.929688 1038.429688 C 1255.238281 1272.433594 1030.089844 1437.011719 767.351562 1437.011719 C 419.195312 1437.011719 136.941406 1148.027344 136.941406 791.484375 C 136.941406 684.992188 162.15625 584.554688 206.730469 496.027344 C 190.109375 554.789062 181.207031 616.394531 181.207031 679.660156 C 181.207031 1043.863281 475.832031 1324.667969 839.316406 1306.910156 C 1045.363281 1296.816406 1229.25 1192.914062 1349.929688 1038.429688" fill-rule="evenodd"/>
  </g>
  <path fill="#ff66c4" d="M 779.261719 156.980469 C 800.695312 156 821.867188 156.152344 842.835938 157.34375 C 525.480469 174.636719 285.9375 424.222656 306.800781 717.503906 C 325.75 983.605469 552.503906 1194.671875 831.703125 1223.148438 C 522.324219 1225.734375 259.277344 1002.863281 238.828125 715.792969 C 217.910156 421.582031 459.886719 171.375 779.261719 156.980469" fill-rule="evenodd"/>
  <path fill="#ff66c4" d="M 967.550781 169.097656 C 897.296875 170.441406 825.800781 184.007812 752.910156 211.1875 C 841.851562 377.371094 959.785156 192.394531 1067.003906 191.71875 C 931.257812 47.953125 816.378906 61.101562 743.175781 165.523438 C 823.472656 155.222656 899.835938 153.097656 967.550781 169.097656" fill-rule="evenodd"/>
  <path fill="#ff66c4" d="M 896.78125 1216.726562 C 1139.378906 1216.726562 1336.054688 1021.707031 1336.054688 781.128906 C 1336.054688 540.550781 1139.378906 345.53125 896.78125 345.53125 C 737.015625 345.53125 597.183594 430.125 520.304688 556.601562 C 596.355469 454.558594 718.535156 388.398438 856.347656 388.398438 C 1086.984375 388.398438 1273.980469 573.839844 1273.980469 802.5625 C 1273.980469 1024.65625 1097.753906 1205.855469 876.433594 1216.261719 C 883.164062 1216.570312 889.945312 1216.726562 896.78125 1216.726562" fill-rule="evenodd"/>
</svg>

